<?xml version="1.0" encoding="UTF-8" standalone="no"?>
<!-- Created with Inkscape (http://www.inkscape.org/) -->

<svg
   version="1.1"
   id="svg1"
   width="180.16"
   height="180.16"
   viewBox="0 0 180.16 180.16"
   sodipodi:docname="logo.svg"
   inkscape:version="1.3 (0e150ed6c4, 2023-07-21)"
   xmlns:inkscape="http://www.inkscape.org/namespaces/inkscape"
   xmlns:sodipodi="http://sodipodi.sourceforge.net/DTD/sodipodi-0.dtd"
   xmlns="http://www.w3.org/2000/svg"
   xmlns:svg="http://www.w3.org/2000/svg">
  <defs
     id="defs1" />
  <sodipodi:namedview
     id="namedview1"
     pagecolor="#ffffff"
     bordercolor="#000000"
     borderopacity="0.25"
     inkscape:showpageshadow="2"
     inkscape:pageopacity="0.0"
     inkscape:pagecheckerboard="0"
     inkscape:deskcolor="#d1d1d1"
     inkscape:zoom="3.1281311"
     inkscape:cx="135.54419"
     inkscape:cy="92.866953"
     inkscape:window-width="1920"
     inkscape:window-height="1011"
     inkscape:window-x="0"
     inkscape:window-y="0"
     inkscape:window-maximized="1"
     inkscape:current-layer="g1" />
  <g
     inkscape:groupmode="layer"
     inkscape:label="Image"
     id="g1">
    <g
       id="g2"
       transform="translate(2.4250735,-0.0736762)">
      <path
         style="fill:#fbdd54"
         d="m 45.518348,177.52 c -0.17601,-0.22 -0.408165,-0.688 -0.515899,-1.04 -0.107735,-0.352 -0.842833,-0.98267 -1.633552,-1.40149 -1.799108,-0.95293 -6.192561,-5.27124 -8.931125,-8.77836 -5.159353,-6.6073 -8.841713,-14.73758 -10.752375,-23.74015 -0.705388,-3.32361 -1.244166,-12.12573 -0.840631,-13.73354 0.244348,-0.97356 0.821528,-0.81807 0.862739,0.23243 0.02538,0.64683 0.04609,0.63917 0.267595,-0.0989 0.13205,-0.44 0.256143,-3.49342 0.275763,-6.78538 0.01962,-3.29196 0.199689,-6.89196 0.400154,-8 1.06022,-5.86023 4.772381,-14.294941 4.794781,-10.89462 0.0052,0.78373 0.104869,0.70034 0.911386,-0.76223 0.764537,-1.38644 0.933389,-2.13407 1.084072,-4.799997 0.649807,-11.496633 11.591311,-27.628282 24.719308,-36.445007 3.724651,-2.501465 10.747665,-6.232765 11.731247,-6.232765 0.296908,0 1.594714,-0.421335 2.884012,-0.936301 6.149904,-2.456366 19.110351,-4.345527 20.471831,-2.984047 0.520173,0.520173 0.01056,0.669914 -4.573038,1.343696 -5.739645,0.84372 -7.959553,1.369169 -13.171729,3.117729 -4.054399,1.360154 -4.459282,1.43967 -4.930615,0.968336 -0.635645,-0.635645 -0.790853,-0.562415 -6.441167,3.039047 -9.063124,5.776758 -13.90902,10.106278 -19.03293,17.004792 -4.223166,5.685807 -6.958835,10.437736 -8.7549,15.207495 -1.12771,2.994825 -0.757836,2.676945 0.990259,-0.851058 5.400263,-10.898803 13.784593,-20.976688 22.487442,-27.029689 3.754108,-2.611055 4.96831,-3.207622 2.819025,-1.385054 -2.052509,1.740503 -1.191092,1.571763 2.399924,-0.470113 8.479341,-4.82141 15.562131,-6.952705 29.760077,-8.955161 23.855208,-3.364501 40.937238,-13.035319 51.550748,-29.184945 3.41683,-5.199081 7.23934,-13.298853 8.60951,-18.2432616 0.70787,-2.5544536 1.13961,-3.2199223 1.60817,-2.4787914 0.39235,0.6205922 0.39012,27.479164 -0.003,36.212364 -0.69731,15.49057 -3.7686,29.249136 -9.3054,41.685801 -0.63703,1.430877 -0.71056,2.174594 -0.77521,7.84 -0.32347,28.34902 -18.63123,62.50533 -39.16802,73.07475 -6.900917,3.55162 -9.392697,4.02674 -22.916788,4.36968 -18.555475,0.47052 -25.952353,2.61092 -34.178622,9.8901 -1.991154,1.76191 -2.208955,1.8622 -2.703032,1.24463 z M 63.27695,60.241415 c 1.141863,-1.016306 4.264342,-2.726789 4.516829,-2.474303 0.231211,0.231211 -0.768753,0.904187 -3.313778,2.230169 -2.179874,1.135736 -2.212166,1.142289 -1.203051,0.244134 z"
         id="path8" />
      <path
         style="fill:#eaa252"
         d="m 45.518348,177.52 c -0.17601,-0.22 -0.409457,-0.69284 -0.518772,-1.05076 -0.109314,-0.35792 -0.649307,-0.91691 -1.199984,-1.2422 -6.586484,-3.89074 -14.57228,-15.19711 -18.026957,-25.52277 -2.174668,-6.49984 -3.61834,-16.74151 -2.839918,-20.14687 l 0.319426,-1.3974 0.238861,1.28 c 0.532295,2.85245 0.670219,1.88442 0.843476,-5.92 0.219152,-9.87178 0.995928,-13.93181 3.678166,-19.22495 1.592335,-3.14232 1.822676,-2.39477 0.467355,1.51677 -0.867027,2.50228 -1.238445,4.33329 -0.787539,3.88239 0.09485,-0.0949 0.606427,-1.45086 1.13683,-3.01334 0.530403,-1.56248 1.372574,-3.56594 1.871492,-4.45215 0.767005,-1.3624 0.912948,-1.99882 0.944836,-4.120241 0.162903,-10.837177 10.709222,-26.872953 23.616064,-35.908444 3.893633,-2.725755 12.347802,-7.340271 12.86376,-7.021392 0.16007,0.09893 1.342047,-0.267373 2.626615,-0.814006 5.754926,-2.448941 18.465977,-4.424694 20.438975,-3.17695 0.660354,0.417614 0.295956,0.514363 -4.311032,1.144589 -6.370985,0.871538 -12.637693,2.469356 -17.520001,4.467061 -0.396073,0.162063 -0.56,0.07861 -0.56,-0.285099 0,-0.976031 -1.170883,-0.504537 -5.617646,2.262128 -14.548776,9.051885 -24.610847,20.688611 -29.392254,33.991969 -1.373697,3.822052 -0.752359,3.381664 1.309776,-0.928333 5.327128,-11.134047 12.893679,-20.510455 22.054531,-27.329792 4.032167,-3.001545 6.032896,-4.135345 3.485593,-1.975263 -1.869784,1.585554 -1.194839,1.699823 1.239492,0.209848 8.423084,-5.155496 16.012441,-7.519395 30.920509,-9.63098 23.879598,-3.382317 40.938528,-13.041433 51.550748,-29.189087 3.41683,-5.199081 7.23934,-13.298853 8.60951,-18.2432616 0.70787,-2.5544536 1.13961,-3.2199223 1.60817,-2.4787914 0.39235,0.6205922 0.39012,27.479164 -0.003,36.212364 -0.69731,15.49057 -3.7686,29.249136 -9.3054,41.685801 -0.63703,1.430877 -0.71056,2.174594 -0.77521,7.84 -0.32347,28.34902 -18.63123,62.50533 -39.16802,73.07475 -6.900917,3.55162 -9.392697,4.02674 -22.916788,4.36968 -18.555475,0.47052 -25.952353,2.61092 -34.178622,9.8901 -1.991154,1.76191 -2.208955,1.8622 -2.703032,1.24463 z m -0.673519,-33.84 c 1.389816,-4.32557 3.602731,-9.83649 5.573714,-13.88046 1.287363,-2.64136 1.619085,-3.60573 1.375912,-4 -0.349766,-0.56711 1.454251,-6.35711 4.078413,-13.0897 1.74316,-4.47227 1.831732,-5.34027 0.457344,-4.48195 -1.250056,0.78067 -1.063969,-0.17509 0.739503,-3.79817 2.083703,-4.18605 2.164749,-5.00652 0.196212,-1.98635 -2.874428,4.41 -6.804638,13.51974 -9.576278,22.19663 -2.223842,6.96196 -4.852454,19.98794 -4.776331,23.66892 l 0.03332,1.61108 0.460718,-1.6 c 0.253395,-0.88 0.900259,-2.968 1.437476,-4.64 z M 55.595594,120.8 c 9.077493,-13.60953 21.90671,-24.483776 36.084408,-30.585713 4.625016,-1.99056 7.36811,-2.9531 15.410228,-5.407382 11.6943,-3.568848 17.00316,-6.248274 23.163,-11.690563 3.90568,-3.45071 9.50064,-10.921395 11.56063,-15.436341 0.66687,-1.461618 1.08117,-2 1.53904,-2 1.21742,0 3.07576,-7.642218 3.3849,-13.92 l 0.17333,-3.52 -0.7756,2.08 c -3.55076,9.522417 -7.96752,16.347707 -13.13392,20.296079 -1.39898,1.069157 -3.34865,2.681917 -4.3326,3.583911 C 123.76144,68.698788 117.69471,71.530336 104,75.713862 87.941017,80.619638 76.753286,88.415283 65.242798,102.72 c -3.76665,4.68103 -9.279277,14.22487 -11.519701,19.94372 -0.792333,2.02249 -0.575903,1.80707 1.872497,-1.86372 z M 63.27695,60.241415 c 1.141863,-1.016306 4.264342,-2.726789 4.516829,-2.474303 0.231211,0.231211 -0.768753,0.904187 -3.313778,2.230169 -2.179874,1.135736 -2.212166,1.142289 -1.203051,0.244134 z"
         id="path7" />
      <path
         style="fill:#43a0d9"
         d="m 45.504909,177.51821 c -0.183401,-0.22098 -0.433044,-0.79858 -0.554762,-1.28354 -0.121719,-0.48497 -0.673296,-1.19798 -1.225727,-1.58448 C 32.867554,167.05445 23.26171,148.18753 23.394493,134.72 l 0.0142,-1.44 0.397903,1.10128 c 0.698268,1.93261 0.951318,0.30739 1.016523,-6.52862 0.0398,-4.17203 0.178842,-6.42664 0.40091,-6.50067 0.449917,-0.14997 0.857023,-1.48321 1.634232,-5.35199 0.832203,-4.14253 2.621433,-9.84576 4.166232,-13.28 0.672935,-1.496 1.839933,-4.231998 2.59333,-6.079998 4.165231,-10.216858 10.050249,-19.118559 17.136016,-25.920001 4.46875,-4.289436 6.478283,-5.76 7.871069,-5.76 1.159966,0 2.790762,-0.907058 4.575096,-2.544694 3.978454,-3.651367 15.361935,-7.267716 28.27707,-8.983169 19.356326,-2.571005 35.250526,-9.696058 45.904296,-20.577979 6.15372,-6.285504 12.26459,-16.639414 15.28083,-25.8909961 0.73104,-2.2422605 1.43778,-4.0097031 1.57054,-3.9276502 0.89612,0.5538283 0.53508,37.8183523 -0.44414,45.8421873 -1.32508,10.857928 -3.9904,21.202091 -7.73857,30.033634 l -1.48062,3.488668 -0.0839,5.92 c -0.43375,30.594848 -20.95619,66.908998 -42.51016,75.221088 -5.463471,2.10694 -6.533439,2.26426 -17.335315,2.54879 -20.175031,0.53143 -27.973228,2.71241 -36.418622,10.18549 -1.994311,1.7647 -2.203816,1.86055 -2.716471,1.24284 z M 43.997145,147.68 c 3.823462,-15.43349 13.117182,-31.12027 24.889862,-42.01136 10.840499,-10.02871 20.340299,-15.086942 38.309113,-20.397937 12.11712,-3.581428 18.40561,-6.928781 24.72783,-13.162585 3.83071,-3.777144 9.08981,-11.092713 10.35383,-14.402492 0.73379,-1.921421 1.21103,-1.775856 0.96511,0.294375 l -0.19957,1.68 0.80553,-1.846272 c 1.07856,-2.472026 2.5539,-8.288262 3.14656,-12.404639 0.63491,-4.409827 0.82196,-11.559322 0.30708,-11.737092 -0.23898,-0.08251 -0.45522,0.434506 -0.58924,1.40883 -1.32409,9.625956 -8.48017,21.593043 -15.86636,26.533224 -1.30179,0.87069 -2.38884,1.700679 -2.41567,1.844419 -0.11922,0.638663 -2.00856,2.217408 -4.4328,3.704065 C 118.5378,70.53124 116.399,71.37502 101.12,76.208323 82.999677,81.94044 65.957196,97.197763 56.31512,116.32 c -1.331176,2.64 -2.665102,5.43755 -2.964279,6.21678 -0.299177,0.77922 -0.618507,1.34222 -0.709623,1.25111 -0.245124,-0.24513 1.616778,-5.9445 3.410625,-10.4401 2.278863,-5.71111 2.305779,-6.02945 0.493938,-5.84211 -0.713186,0.0737 1.596491,-4.68139 4.758952,-9.797657 2.375395,-3.842943 2.480737,-4.156455 0.890685,-2.650794 -1.629191,1.542721 -6.328574,8.767851 -8.317649,12.788071 -5.725837,11.57281 -10.754729,29.68925 -11.190844,40.3147 -0.191792,4.6728 0.05618,4.58195 1.31022,-0.48 z M 134.14093,54.941577 c 0.35689,-0.494133 0.59546,-0.951858 0.53015,-1.017166 -0.26964,-0.269634 -4.11108,3.63438 -4.11108,4.178042 0,0.640645 2.30435,-1.393403 3.58093,-3.160876 z M 25.305264,114.69334 c 0.01535,-0.37279 0.09118,-0.44861 0.193333,-0.19334 0.09244,0.231 0.08107,0.507 -0.02526,0.61334 -0.106333,0.10633 -0.181965,-0.0827 -0.16807,-0.42 z m 8.437902,-24.293338 c 0.314992,-1.367313 2.709404,-6.324322 4.328,-8.96 5.511832,-8.975323 12.444409,-15.975554 20.912679,-21.116764 2.70674,-1.643301 3.777931,-1.965528 1.316468,-0.396009 -11.007248,7.018625 -18.469391,15.246102 -24.521747,27.036752 -1.241107,2.417811 -2.157037,3.964021 -2.0354,3.436021 z m 35.696835,-34.67559 c 0,-0.668527 8.009553,-3.12386 11.073138,-3.394478 1.692831,-0.149534 1.524891,-0.07074 -1.633137,0.766219 -1.936,0.513091 -4.807013,1.376358 -6.380029,1.91837 -3.246254,1.11856 -3.059972,1.075344 -3.059972,0.709889 z m 13.360001,-3.776341 c 0.22,-0.08877 0.58,-0.08877 0.8,0 0.22,0.08877 0.04,0.161404 -0.4,0.161404 -0.44,0 -0.62,-0.07263 -0.4,-0.161404 z"
         id="path6" />
      <path
         style="fill:#f88732"
         d="M 43.640882,174.61858 C 34.486087,167.54955 27.602185,156.51389 24.749796,144.33405 24.083931,141.49078 23.377167,136.47724 23.394493,134.72 l 0.0142,-1.44 0.397903,1.10128 c 0.698268,1.93261 0.951318,0.30739 1.016523,-6.52862 0.0398,-4.17203 0.178842,-6.42664 0.40091,-6.50067 0.449917,-0.14997 0.857023,-1.48321 1.634232,-5.35199 0.832203,-4.14253 2.621433,-9.84576 4.166232,-13.28 0.672935,-1.496 1.839933,-4.231998 2.59333,-6.079998 4.165231,-10.216858 10.050249,-19.118559 17.136016,-25.920001 4.46875,-4.289436 6.478283,-5.76 7.871069,-5.76 1.168751,0 2.824475,-0.926136 4.575096,-2.559099 C 66.968447,58.885731 78.686891,55.1746 91.520002,53.432201 108.45355,51.13307 120.83217,46.334538 131.84,37.802283 c 8.98059,-6.960922 16.82521,-18.579353 20.8222,-30.8391201 0.73104,-2.2422605 1.43778,-4.0097031 1.57054,-3.9276502 0.89746,0.5546608 0.52872,37.8784723 -0.4538,45.9342383 -1.31177,10.755216 -4.32124,22.183717 -8.23664,31.278704 -1.4017,3.255998 -1.41255,3.309389 -1.09865,5.409755 0.65018,4.350595 -0.67398,14.55484 -3.00302,23.14179 -6.43722,23.73345 -19.40878,43.34954 -34.60308,52.32812 -6.17242,3.64739 -11.613431,4.95044 -20.688895,4.95469 -10.060621,0.005 -17.049499,0.68829 -23.362451,2.28504 -4.652484,1.17676 -3.839253,0.19741 3.106811,-3.74144 10.522204,-5.96674 14.737519,-8.57333 14.932447,-9.23365 0.109232,-0.37001 1.752684,-2.25676 3.652117,-4.19276 10.902004,-11.11188 17.260041,-24.08987 16.564471,-33.81131 -0.20856,-2.91493 -0.25008,-2.93783 -3.442048,-1.8984 -4.553292,1.48273 -10.553757,4.74025 -19.84,10.77069 -2.024,1.31438 -4.30993,2.69689 -5.079844,3.07224 -1.410818,0.6878 -6.712735,5.74578 -7.471409,7.12765 -0.473495,0.86243 -2.980831,4.20042 -3.86027,5.13913 -1.855324,1.98037 -7.314259,10.89139 -9.993852,16.3137 -3.130084,6.33391 -4.694148,10.51999 -5.296914,14.17674 -0.697966,4.2343 -0.489574,4.01631 -2.416831,2.52814 z M 43.997145,147.68 c 3.823462,-15.43349 13.117182,-31.12027 24.889862,-42.01136 10.840499,-10.02871 20.340299,-15.086942 38.309113,-20.397937 12.11712,-3.581428 18.40561,-6.928781 24.72783,-13.162585 3.83071,-3.777144 9.08981,-11.092713 10.35383,-14.402492 0.73379,-1.921421 1.21103,-1.775856 0.96511,0.294375 l -0.19957,1.68 0.80553,-1.846272 c 1.07856,-2.472026 2.5539,-8.288262 3.14656,-12.404639 0.63491,-4.409827 0.82196,-11.559322 0.30708,-11.737092 -0.23898,-0.08251 -0.45522,0.434506 -0.58924,1.40883 -1.32409,9.625956 -8.48017,21.593043 -15.86636,26.533224 -1.30179,0.87069 -2.38884,1.700679 -2.41567,1.844419 -0.11922,0.638663 -2.00856,2.217408 -4.4328,3.704065 C 118.5378,70.53124 116.399,71.37502 101.12,76.208323 82.999677,81.94044 65.957196,97.197763 56.31512,116.32 c -1.331176,2.64 -2.665102,5.43755 -2.964279,6.21678 -0.299177,0.77922 -0.618507,1.34222 -0.709623,1.25111 -0.245124,-0.24513 1.616778,-5.9445 3.410625,-10.4401 2.278863,-5.71111 2.305779,-6.02945 0.493938,-5.84211 -0.713186,0.0737 1.596491,-4.68139 4.758952,-9.797657 2.375395,-3.842943 2.480737,-4.156455 0.890685,-2.650794 -1.629191,1.542721 -6.328574,8.767851 -8.317649,12.788071 -5.725837,11.57281 -10.754729,29.68925 -11.190844,40.3147 -0.191792,4.6728 0.05618,4.58195 1.31022,-0.48 z M 134.14093,54.941577 c 0.35689,-0.494133 0.59546,-0.951858 0.53015,-1.017166 -0.26964,-0.269634 -4.11108,3.63438 -4.11108,4.178042 0,0.640645 2.30435,-1.393403 3.58093,-3.160876 z M 25.305264,114.69334 c 0.01535,-0.37279 0.09118,-0.44861 0.193333,-0.19334 0.09244,0.231 0.08107,0.507 -0.02526,0.61334 -0.106333,0.10633 -0.181965,-0.0827 -0.16807,-0.42 z m 8.437902,-24.293338 c 0.314992,-1.367313 2.709404,-6.324322 4.328,-8.96 5.511832,-8.975323 12.444409,-15.975554 20.912679,-21.116764 2.70674,-1.643301 3.777931,-1.965528 1.316468,-0.396009 -11.007248,7.018625 -18.469391,15.246102 -24.521747,27.036752 -1.241107,2.417811 -2.157037,3.964021 -2.0354,3.436021 z m 35.696835,-34.67559 c 0,-0.668527 8.009553,-3.12386 11.073138,-3.394478 1.692831,-0.149534 1.524891,-0.07074 -1.633137,0.766219 -1.936,0.513091 -4.807013,1.376358 -6.380029,1.91837 -3.246254,1.11856 -3.059972,1.075344 -3.059972,0.709889 z m 13.360001,-3.776341 c 0.22,-0.08877 0.58,-0.08877 0.8,0 0.22,0.08877 0.04,0.161404 -0.4,0.161404 -0.44,0 -0.62,-0.07263 -0.4,-0.161404 z"
         id="path5" />
      <path
         style="fill:#46709f"
         d="m 44.41827,175.12 c -0.810393,-0.94364 -0.867475,-1.14392 -1.722963,-6.04522 -1.218453,-6.9808 -1.365874,-10.80791 -0.507056,-13.1633 0.373674,-1.02483 0.911224,-3.00817 1.194556,-4.4074 4.48079,-22.12845 18.352727,-42.45982 37.257195,-54.605924 3.506956,-2.253217 8.084001,-4.738154 8.727281,-4.738154 1.207134,0 5.655829,8.070288 6.967719,12.639998 0.404214,1.408 0.765225,2.60303 0.802247,2.65562 0.03702,0.0526 0.984286,-0.33994 2.105033,-0.87227 1.120748,-0.53234 3.790658,-1.74426 5.933148,-2.69316 20.67958,-9.158934 36.10763,-29.787809 41.24177,-55.144456 0.77001,-3.802953 1.65034,-13.771213 1.29741,-14.690943 -0.34687,-0.903912 -0.79968,-0.423607 -1.00424,1.06521 -1.26368,9.197324 -8.38367,21.401556 -15.22133,26.090575 -1.81462,1.244402 -5.42672,2.878412 -5.71832,2.586806 -0.0901,-0.0901 1.28444,-1.51013 3.05454,-3.155617 2.88032,-2.677553 5.89474,-6.093276 5.89474,-6.679497 0,-0.120238 -0.9031,0.547514 -2.0069,1.483895 -4.27646,3.627832 -8.77548,6.004474 -13.9931,7.391955 -8.36261,2.223804 -14.15771,1.950824 -26.981713,-1.270983 -9.354715,-2.350209 -17.037433,-2.274352 -24.698286,0.243863 -1.584,0.52068 -3.297432,1.078306 -3.807627,1.239169 l -0.927628,0.292477 0.767628,-0.82395 C 66.210833,59.149955 78.634404,55.181727 91.520002,53.432201 108.45355,51.13307 120.83217,46.334538 131.84,37.802283 c 8.98059,-6.960922 16.82521,-18.579353 20.8222,-30.8391201 0.73104,-2.2422605 1.43778,-4.0097031 1.57054,-3.9276502 0.89746,0.5546608 0.52872,37.8784723 -0.4538,45.9342383 -1.31177,10.755216 -4.32124,22.183717 -8.23664,31.278704 -1.4017,3.255998 -1.41255,3.309389 -1.09865,5.409755 0.65018,4.350595 -0.67398,14.55484 -3.00302,23.14179 -6.43722,23.73345 -19.40878,43.34954 -34.60308,52.32812 -6.17242,3.64739 -11.613431,4.95044 -20.688895,4.95469 -10.060621,0.005 -17.049499,0.68829 -23.362451,2.28504 -4.652484,1.17676 -3.839253,0.19741 3.106811,-3.74144 10.522204,-5.96674 14.737519,-8.57333 14.932447,-9.23365 0.109232,-0.37001 1.752684,-2.25676 3.652117,-4.19276 10.902004,-11.11188 17.260041,-24.08987 16.564471,-33.81131 -0.20856,-2.91493 -0.25008,-2.93783 -3.442048,-1.8984 -4.553292,1.48273 -10.553757,4.74025 -19.84,10.77069 -2.024,1.31438 -4.30993,2.69689 -5.079844,3.07224 -1.410818,0.6878 -6.712735,5.74578 -7.471409,7.12765 -0.473495,0.86243 -2.980831,4.20042 -3.86027,5.13913 -1.855324,1.98037 -7.314259,10.89139 -9.993852,16.3137 -3.130084,6.33391 -4.694148,10.51999 -5.296914,14.17674 -0.668667,4.05655 -0.702996,4.11999 -1.639443,3.02956 z"
         id="path4" />
      <path
         style="fill:#e03524"
         d="m 43.851621,174.42172 c -0.542209,-1.01313 -1.97259,-9.85135 -2.164503,-13.37431 -0.153809,-2.82349 -0.08504,-3.5283 0.501133,-5.13593 0.373674,-1.02483 0.911224,-3.00817 1.194556,-4.4074 4.48079,-22.12845 18.352727,-42.45982 37.257195,-54.605924 3.506956,-2.253217 8.084001,-4.738154 8.727281,-4.738154 1.207134,0 5.655829,8.070288 6.967719,12.639998 0.404214,1.408 0.765225,2.60303 0.802247,2.65562 0.03702,0.0526 0.984286,-0.33994 2.105033,-0.87227 1.120748,-0.53234 3.790658,-1.74426 5.933148,-2.69316 20.65671,-9.148805 36.0538,-29.713898 41.23301,-55.072794 0.78077,-3.822876 1.6717,-14.130037 1.30416,-15.087829 -0.32018,-0.834373 -0.78588,-0.185535 -1.00334,1.397892 -1.26191,9.188489 -8.38532,21.395986 -15.22022,26.083117 -1.81462,1.244402 -5.42672,2.878412 -5.71832,2.586806 -0.0901,-0.0901 1.28444,-1.51013 3.05454,-3.155617 2.88032,-2.677553 5.89474,-6.093276 5.89474,-6.679497 0,-0.120238 -0.9031,0.547514 -2.0069,1.483895 -4.27646,3.627832 -8.77548,6.004474 -13.9931,7.391955 -8.36261,2.223804 -14.15771,1.950824 -26.981713,-1.270983 -9.354715,-2.350209 -17.037433,-2.274352 -24.698286,0.243863 -4.534349,1.490495 -4.663492,1.5259 -4.479412,1.228052 0.332549,-0.538075 3.550899,-2.194432 7.359412,-3.787597 7.272519,-3.042216 11.575473,-4.072943 24.320001,-5.825599 29.014588,-3.990151 50.152178,-20.439713 58.577558,-45.5858538 0.64867,-1.9360001 1.2468,-3.5920001 1.32918,-3.6800001 0.45331,-0.4842338 -0.15805,40.0670709 -0.66576,44.1600009 -1.38653,11.17745 -4.3673,22.556187 -8.31245,31.731789 l -1.46694,3.411789 0.30598,2.668212 c 0.50656,4.417346 -0.4717,12.658934 -2.4438,20.588209 -7.02416,28.2424 -23.94596,51.36299 -41.883768,57.22665 -4.19904,1.37261 -7.642347,1.81303 -14.201917,1.81652 -9.743133,0.005 -17.74579,0.82375 -23.718084,2.42608 -1.64653,0.44176 0.153113,-0.77699 6.56,-4.44254 3.52,-2.01389 7.750117,-4.43676 9.40026,-5.38416 2.061923,-1.18382 3.228085,-2.08036 3.728714,-2.86663 0.40065,-0.62924 2.122893,-2.57324 3.827207,-4.32 10.92662,-11.19872 17.514918,-25.45734 16.167458,-34.99018 -0.26876,-1.9014 -2.065365,-5.95034 -3.361664,-7.57605 l -0.66472,-0.83364 -1.588627,0.86806 c -0.873745,0.47743 -2.524627,1.37778 -3.668627,2.00079 C 71.62065,121.83035 49.36952,151.41679 45.114078,173.2 c -0.376943,1.92954 -0.710756,2.25258 -1.262457,1.22172 z"
         id="path3" />
      <path
         style="fill:#2b2b34"
         d="m 61.704413,167.71325 c 0.409426,-0.36045 1.849426,-1.26288 3.2,-2.00539 6.812839,-3.74554 15.638263,-9.02647 16.121854,-9.64696 0.300445,-0.38549 0.845916,-1.09028 1.212157,-1.56619 0.400153,-0.51998 0.854975,-0.79273 1.139697,-0.68347 1.014186,0.38918 12.759651,-6.8029 18.861879,-11.54967 7.1636,-5.57236 15.57129,-14.9214 21.02733,-23.38157 0.79452,-1.232 2.11357,-3.28111 2.93121,-4.55358 2.27081,-3.53402 5.07872,-8.65465 4.95285,-9.03226 -0.0618,-0.18542 -1.12015,0.91054 -2.35188,2.43547 -5.91517,7.32321 -7.90111,9.58852 -12.4081,14.15358 -5.75466,5.82879 -10.16727,9.67777 -16.743195,14.60456 -2.657483,1.99102 -5.355814,4.24379 -5.996292,5.00614 -0.824334,0.98119 -0.415746,0.12415 1.398714,-2.93391 4.885455,-8.23385 7.230163,-16.45163 6.389973,-22.39571 -0.25628,-1.81311 -1.8416,-5.44202 -3.238724,-7.41369 -0.331036,-0.46717 -0.601884,-0.90869 -0.601884,-0.98116 0,-0.14513 1.681766,-0.93667 7.643618,-3.59757 23.74211,-10.596569 40.46038,-36.088528 42.33221,-64.547991 0.46904,-7.131294 -0.0764,-8.624174 -1.16017,-3.175502 -2.21807,11.1512 -10.07044,22.788346 -17.63388,26.133258 -2.77071,1.225338 -2.67834,0.993882 1.06223,-2.661634 4.71391,-4.606742 7.62271,-9.088445 3.36708,-5.187813 -9.38133,8.598766 -21.67027,11.070752 -37.211088,7.485209 -9.430066,-2.175684 -10.712503,-2.393295 -15.2,-2.579231 -5.228423,-0.216634 -8.944924,0.275679 -13.784804,1.826031 -5.184562,1.660763 -3.765628,0.58038 2.904803,-2.211731 7.267917,-3.042207 11.572924,-4.073606 24.320001,-5.826612 29.014588,-3.990151 50.152178,-20.439713 58.577558,-45.5858538 0.64867,-1.9360001 1.2468,-3.5920001 1.32918,-3.6800001 0.45331,-0.4842338 -0.15805,40.0670709 -0.66576,44.1600009 -1.38653,11.17745 -4.3673,22.556187 -8.31245,31.731789 l -1.46694,3.411789 0.30598,2.668212 c 0.50656,4.417346 -0.4717,12.658934 -2.4438,20.588209 -7.02416,28.2424 -23.94596,51.36299 -41.883768,57.22665 -4.19904,1.37261 -7.642347,1.81303 -14.201917,1.81652 -9.765474,0.005 -16.901358,0.7298 -23.718084,2.40845 l -0.8,0.19701 z m 21.495589,-14.53338 c 0,-0.0551 0.468,-0.52307 1.04,-1.04 l 1.04,-0.93987 -0.939869,1.04 c -0.87609,0.96943 -1.140131,1.18709 -1.140131,0.93987 z m 4,-4.05987 c 0.687437,-0.704 1.321886,-1.28 1.409886,-1.28 0.088,0 -0.402449,0.576 -1.089886,1.28 -0.687438,0.704 -1.321887,1.28 -1.409887,1.28 -0.088,0 0.402449,-0.576 1.089887,-1.28 z"
         id="path2" />
    </g>
  </g>
</svg>
